<?xml version="1.0" encoding="utf-8"?>
<!-- Generator: Adobe Illustrator 20.0.0, SVG Export Plug-In . SVG Version: 6.00 Build 0)  -->
<svg version="1.1" id="Layer_1" xmlns="http://www.w3.org/2000/svg" xmlns:xlink="http://www.w3.org/1999/xlink" x="0px" y="0px"
	 viewBox="0 0 612 792" style="enable-background:new 0 0 612 792;" xml:space="preserve">
		<path class="st0" d="M-86.8,386.9c0-7,0-14,0-21c13.2-25.2,26.5-50.3,40.1-76.2c-5.9-0.6-11.9-1.2-18-1.7c-0.6-1-1.2-1.9-1.8-2.9
			c7.1-8.1,13-17.9,21.6-24.1c22.6-16.4,46.4-31.2,69.7-46.6c3.8-2.5,7.4-5.2,11.5-8c-1.4-1.6-2-2.6-2.9-3.3
			c-10.5-8.3-11-11.7,0.9-18.4c11-6.1,23.2-11.7,35.5-13.8c30.1-5,60.6-7.7,90.8-11.8c5.1-0.7,11.3-2.5,14.6-5.9
			c33.1-34.8,73.5-56.7,119.5-69.1c4.2-0.7,8.5-2.1,12.6-2c8.6,0.3,17.2,1.3,25.7,2.1c-6.6,9.1-12.7,18.8-20,27.3
			c-13.3,15.6-26.4,31.2-32.5,51.3c-3.1,10.3-2.4,11.3,8.4,12.5c32.8,3.6,65.4,9,96.3,21.1c49.5,19.3,95.4,43.2,116.2,97.3
			c1.7,4.4,7.3,8.2,12,10.3c52.7,23.5,105.7,46.3,158.3,70.2c10.5,4.8,19.4,13.1,29,19.8c0,3.5,0,7,0,10.5c-1,1-2.1,1.9-3,3
			c-11.9,15.3-22.1,32.5-36.2,45.6c-21.5,20-45.4,37.4-68.7,55.4c-4.1,3.2-10.1,3.9-15.2,5.7c-0.5-0.8-1-1.6-1.6-2.4
			c5-14.1,10-28.2,15.2-43c-10.7-3.2-20.2-6-29.6-8.8c-20.9-6.1-41.6-11.7-58.8-27.1c-14.3-12.8-31.9-12.6-47.9-1.9
			c-13.5,9-25.9,19.8-39.1,29.3c-6.8,4.9-8.1,11.2-4.2,17.4c3.3,5.4,8.3,10.8,13.9,13.4c6.9,3.2,15.2,4.5,22.9,4.8
			c13.6,0.4,26.1,2.5,35.2,14c0.8,1.1,2.3,1.8,3.6,2.3c13.3,5.2,26.3,10.9,39.9,15.1c4.9,1.5,11.5,0.3,16.4-1.9
			c5.4-2.4,9.6-7.5,14.4-11.2c3-2.3,6.4-4.2,11.7-7.6C569,515,568.5,521,568,527c-1.2,12.1-3.3,23.7,4.2,35.4
			c5.5,8.6,1.6,16.8-7.4,22.1c-3.7,2.2-7.8,4-11.9,5.3c-19.3,5.8-38.6,11.3-57.9,16.8c-1.8,0.5-3.8,0.1-6.8,0.1c0-6.1,0-11.7,0-18.4
			c-8.9,1.8-16.5,3.3-24.1,5c-10.6,2.4-11.3,2.3-11.7-8.1c-0.3-8.1-3.6-11.8-11.7-11.3c-2,0.1-4-0.7-6-0.9
			c-27.8-2.8-55.6-6.8-83.4-7.9c-25.8-1-51.2,3.9-74.3,16.6c-27.7,15.2-34.6,44-16.2,69.7c6.5,9,15.6,16.3,24.1,23.8
			c7.2,6.3,15.6,11.3,22.8,17.6c4.3,3.7,7.3,8.9,10.9,13.4c-42.9,3.3-74-19-106.1-45c1.4,19.8,2.5,36.5,3.6,53.2c-0.6,0-1.2,0-1.8,0
			c-2.1-2.4-4.1-4.9-6.4-7c-24-22.3-37.8-50.4-42.3-82.3c-9.7-68.9,29.3-129.9,95.5-152.3c28-9.5,57.2-10.1,86.2-12.1
			c10.5,0,21,0,31.5,0c0-1,0.1-1.9,0.1-2.9c-3.5-0.8-7.1-1.5-10.6-2.3c-32.4-7.6-64.9-10.4-98-5.7c-65.6,9.3-116.8,46.2-136.4,112.8
			c-13.1,44.7-14,90.2-10.1,136.1c0.3,3.8,0,7.6,0,11.4c-0.8,0.3-1.6,0.7-2.4,1c-5.7-6.4-12.7-12.1-17-19.4
			c-16.3-27.9-31.7-56.2-47.5-84.4c-0.9-2.8-1.6-5.6-2.6-8.3C41.2,563.3,34.9,526.8,36.5,489c2.8-67.7,40.3-115.1,103.4-129
			c36.2-8,72.6-4.5,108.5,2.9c22.7,4.7,44.9,11.6,67.3,17.5c14.9,4.4,29,11.9,44.4,14.6c0.4-1.2,0.7-2.3,1.1-3.5
			c-14.5-5.1-29-10.2-43.5-15.2c-38-11.7-75.6-24.6-114.1-34.6c-33.6-8.7-67.8-7.6-100.6,5.3c-49.2,19.4-76.8,57.8-91,107.1
			c-11.5,39.7-8.1,80.2-5.5,120.7c0.3,4.4,0.5,8.8,0.7,13.2c-0.9,0.3-1.7,0.6-2.6,1c-4.3-5.3-9-10.3-12.9-15.9
			c-16.4-22.7-21.5-49.4-27.2-75.9c-2-9.5-4.3-19-6.4-28.6c-1.2-0.7-2.5-1.3-3.7-2c-3.1,5.2-6.1,10.4-9.2,15.6
			C-73.1,449-67.4,415.7-66.8,384C-74.4,385.1-80.6,386-86.8,386.9z M369.4,264.7c0.6,1.2,0.7,1.9,1.1,2.1c2.6,1.3,5.2,2.5,7.9,3.7
			c18.2,8.3,35.9,17.2,42.8,38.2c0.4,1.3,3.2,3,4.5,2.7c12-2.8,23.8-6,37.2-9.5c-19-11.6-35.9-22.9-53.6-32.5
			C397.2,262.9,383.4,262.7,369.4,264.7z"/>
		<path class="st1" d="M294.7,84c4.1-1.7,8.2-3.4,12.3-5.1c9.3,0,18.7,0,28,0c-0.6,1.7-1.3,3.5-1.9,5.2c-8.6-0.7-17.1-1.8-25.7-2.1
			C303.2,81.9,298.9,83.3,294.7,84z"/>
		<path class="st2" d="M315.6,380.4c0.7-1.4,1.3-2.7,2-4.1c14.5,5.1,29,10.2,43.5,15.2c-0.4,1.2-0.7,2.3-1.1,3.5
			C344.6,392.3,330.5,384.8,315.6,380.4z"/>
		<path class="st3" d="M347.2,460.3c7-1.7,14-3.4,21-5.1c3.5,0.8,7.1,1.5,10.6,2.3c0,1-0.1,1.9-0.1,2.9
			C368.2,460.3,357.7,460.3,347.2,460.3z"/>
</svg>
