<?xml version="1.0" encoding="utf-8"?>
<!-- Generator: Adobe Illustrator 20.0.0, SVG Export Plug-In . SVG Version: 6.00 Build 0)  -->
<svg version="1.1" id="Layer_1" xmlns="http://www.w3.org/2000/svg" xmlns:xlink="http://www.w3.org/1999/xlink" x="0px" y="0px"
	 viewBox="0 0 612 792" style="enable-background:new 0 0 612 792;" xml:space="preserve">
		<path class="st0" d="M82,391c0-4,0-8,0-12c7.6-14.4,15.1-28.7,22.9-43.5c-3.4-0.3-6.8-0.7-10.3-1c-0.3-0.6-0.7-1.1-1-1.7
			c4.1-4.6,7.4-10.2,12.3-13.8c12.9-9.4,26.5-17.8,39.8-26.6c2.2-1.4,4.3-3,6.6-4.6c-0.8-0.9-1.2-1.5-1.7-1.9
			c-6-4.8-6.3-6.7,0.5-10.5c6.3-3.5,13.2-6.7,20.3-7.9c17.2-2.9,34.6-4.4,51.9-6.7c2.9-0.4,6.4-1.4,8.3-3.4
			c18.9-19.9,42-32.4,68.3-39.5c2.4-0.4,4.8-1.2,7.2-1.1c4.9,0.1,9.8,0.8,14.7,1.2c-3.8,5.2-7.3,10.7-11.5,15.6
			c-7.6,8.9-15.1,17.8-18.6,29.3c-1.8,5.9-1.4,6.5,4.8,7.2c18.8,2,37.4,5.2,55,12c28.3,11,54.5,24.7,66.4,55.6
			c1,2.5,4.2,4.7,6.9,5.9c30.1,13.4,60.4,26.5,90.4,40.1c6,2.7,11.1,7.5,16.6,11.3c0,2,0,4,0,6c-0.6,0.6-1.2,1.1-1.7,1.7
			c-6.8,8.8-12.6,18.6-20.7,26.1c-12.3,11.4-26,21.4-39.3,31.6c-2.3,1.8-5.8,2.2-8.7,3.2c-0.3-0.5-0.6-0.9-0.9-1.4
			c2.8-8.1,5.7-16.1,8.7-24.6c-6.1-1.8-11.5-3.5-16.9-5c-11.9-3.5-23.8-6.7-33.6-15.5c-8.2-7.3-18.2-7.2-27.3-1.1
			c-7.7,5.2-14.8,11.3-22.4,16.8c-3.9,2.8-4.6,6.4-2.4,9.9c1.9,3.1,4.7,6.2,7.9,7.6c4,1.8,8.7,2.6,13.1,2.7c7.8,0.3,14.9,1.4,20.1,8
			c0.5,0.6,1.3,1,2.1,1.3c7.6,3,15.1,6.2,22.8,8.6c2.8,0.9,6.6,0.1,9.3-1.1c3.1-1.4,5.5-4.3,8.2-6.4c1.7-1.3,3.7-2.4,6.7-4.4
			c-0.4,4.9-0.6,8.4-1,11.8c-0.7,6.9-1.9,13.5,2.4,20.2c3.1,4.9,0.9,9.6-4.3,12.6c-2.1,1.3-4.5,2.3-6.8,3c-11,3.3-22,6.5-33.1,9.6
			c-1,0.3-2.2,0-3.9,0c0-3.5,0-6.7,0-10.5c-5.1,1-9.4,1.9-13.8,2.8c-6,1.4-6.4,1.3-6.7-4.6c-0.2-4.6-2-6.7-6.7-6.5
			c-1.1,0.1-2.3-0.4-3.4-0.5c-15.9-1.6-31.8-3.9-47.7-4.5c-14.7-0.6-29.3,2.2-42.4,9.5c-15.8,8.7-19.8,25.2-9.3,39.8
			c3.7,5.2,8.9,9.3,13.8,13.6c4.1,3.6,8.9,6.4,13,10c2.4,2.1,4.2,5.1,6.2,7.6c-24.5,1.9-42.3-10.8-60.6-25.7
			c0.8,11.3,1.4,20.9,2.1,30.4c-0.3,0-0.7,0-1,0c-1.2-1.3-2.3-2.8-3.7-4c-13.7-12.8-21.6-28.8-24.2-47c-5.5-39.4,16.7-74.2,54.6-87
			c16-5.4,32.7-5.7,49.3-6.9c6,0,12,0,18,0c0-0.5,0.1-1.1,0.1-1.6c-2-0.4-4.1-0.9-6.1-1.3c-18.5-4.3-37.1-5.9-56-3.2
			c-37.5,5.3-66.8,26.4-77.9,64.4c-7.5,25.5-8,51.5-5.8,77.8c0.2,2.2,0,4.4,0,6.5c-0.5,0.2-0.9,0.4-1.4,0.6
			c-3.3-3.7-7.3-6.9-9.7-11.1c-9.3-15.9-18.1-32.1-27.1-48.2c-0.5-1.6-0.9-3.2-1.5-4.7c-7.5-20.2-11.1-41.1-10.2-62.7
			c1.6-38.7,23-65.8,59.1-73.7c20.7-4.6,41.5-2.6,62,1.7c13,2.7,25.6,6.6,38.4,10c8.5,2.5,16.6,6.8,25.4,8.4c0.2-0.7,0.4-1.3,0.6-2
			c-8.3-2.9-16.6-5.8-24.9-8.7c-21.7-6.7-43.2-14.1-65.2-19.8c-19.2-5-38.7-4.4-57.5,3c-28.1,11.1-43.9,33-52,61.2
			c-6.6,22.7-4.6,45.9-3.2,69c0.2,2.5,0.3,5,0.4,7.6c-0.5,0.2-1,0.4-1.5,0.6c-2.5-3-5.1-5.9-7.4-9.1c-9.3-13-12.3-28.2-15.5-43.4
			c-1.2-5.5-2.5-10.9-3.7-16.3c-0.7-0.4-1.4-0.8-2.1-1.1c-1.8,3-3.5,5.9-5.3,8.9c-10.4-18.9-7.1-38-6.8-56.1
			C89.1,390,85.5,390.5,82,391z M342.7,321.2c0.3,0.7,0.4,1.1,0.6,1.2c1.5,0.7,3,1.4,4.5,2.1c10.4,4.7,20.5,9.8,24.5,21.8
			c0.2,0.8,1.8,1.7,2.6,1.6c6.8-1.6,13.6-3.4,21.3-5.4c-10.9-6.7-20.5-13.1-30.6-18.6C358.5,320.1,350.7,320,342.7,321.2z"/>
		<path class="st1" d="M300,217.9c2.3-1,4.7-2,7-2.9c5.3,0,10.7,0,16,0c-0.4,1-0.7,2-1.1,3c-4.9-0.4-9.8-1-14.7-1.2
			C304.8,216.7,302.4,217.5,300,217.9z"/>
		<path class="st2" d="M311.9,387.3c0.4-0.8,0.7-1.6,1.1-2.3c8.3,2.9,16.6,5.8,24.9,8.7c-0.2,0.7-0.4,1.3-0.6,2
			C328.5,394.1,320.4,389.8,311.9,387.3z"/>
		<path class="st3" d="M330,433c4-1,8-2,12-2.9c2,0.4,4.1,0.9,6.1,1.3c0,0.5-0.1,1.1-0.1,1.6C342,433,336,433,330,433z"/>
</svg>