<?xml version="1.0" encoding="utf-8"?>
<!-- Generator: Adobe Illustrator 20.0.0, SVG Export Plug-In . SVG Version: 6.00 Build 0)  -->
<svg version="1.1" id="Layer_1" xmlns="http://www.w3.org/2000/svg" xmlns:xlink="http://www.w3.org/1999/xlink" x="0px" y="0px"
	 viewBox="0 0 612 792" style="enable-background:new 0 0 612 792;" xml:space="preserve">
		<path class="st0" d="M271,522c-0.3,0-0.7,0-1,0c-0.9-1.1-1.7-2.4-2.7-3.4c-13.5-14-19.1-30.8-15.6-49.9
			c4.3-23.7,23.2-40.8,48.6-44.4c10.9-1.6,22-2,32.8-3c-6.5-3-20.8-4.8-33.2-4.1c-34.5,1.9-56.3,20.5-63.4,54.4
			c-3,14.5-2.9,29.1-1.8,43.8c0.1,1.8-0.5,3.8-0.7,5.6c-4.5-5.9-9.5-11.6-13.4-17.9c-14.3-23-22.6-47.7-19.6-75.3
			c2.6-23.6,17.8-40.9,40.8-45c8.6-1.5,17.7-2,26.3-0.9c13,1.6,25.8,4.9,38.6,7.4c7.2,2.6,14.3,5.1,21.5,7.7
			c0.2-0.7,0.5-1.4,0.7-2.1c-6.7-2.2-13.3-4.4-20-6.6c-14.2-4.3-28.1-9.4-42.5-12.7c-32.6-7.6-59.8,5.8-72.1,34.3
			c-4.9,11.5-6.9,23.5-6.5,36c0.3,8.7,0,17.4,0,26.4c-13.5-12.5-13.6-30.7-18.5-47.3c-2.3,2.1-3.9,3.5-5.8,5.3
			c-6-12.6-3.8-25.6-3.6-38.4c-3.1,0.9-5.5,1.5-7.8,2.2c0-3.3,0-6.7,0-10c4.7-8.2,9.4-16.3,14-24.5c0.7-1.3,1.3-2.6,2.1-4.2
			c-2.7-0.4-4.9-0.7-7.3-1.1c2.9-9.5,11.2-12.8,18-17.6c7-4.9,14.3-9.5,22.3-14.7c-2.5-1.5-4.1-2.5-5.8-3.6c4.8-7,11.3-9,17.8-10
			c11.6-1.9,23.4-2.9,35.1-4.6c2.7-0.4,5.9-1.5,7.8-3.4c12.9-13,28.3-21.4,45.9-26.1c2-0.5,4-1.4,6-2.1c3,0,6,0,9,0
			c-1.9,3.6-3.5,7.3-5.7,10.7c-4.6,7.1-10,13.6-14.1,21c-2.8,4.9-1.7,5.3,3.9,6.5c13.6,2.9,27.6,5.1,40.6,9.8
			c18.1,6.6,34.2,16.6,41.7,36.1c0.8,2.1,3.6,3.9,5.8,4.9c20.3,9.1,40.8,17.9,61.1,27.1c4.2,1.9,7.8,5.3,11.7,7.9c0,1.7,0,3.3,0,5
			c-10.7,16-25.7,27.7-41,38.9c-2.1,1.5-4.7,2.4-7,3.5c-0.3-0.4-0.6-0.8-1-1.2c1.9-5.5,3.8-11,5.8-16.8c-3-0.9-5.4-1.7-7.8-2.4
			c-9.8-2.9-19.8-5.2-28-12.4c-5.1-4.4-11.6-4.1-17.3-0.4c-5,3.2-9.7,7-14.4,10.7c-5.5,4.4-4.6,10.8,2.1,13.2
			c3.4,1.2,7.1,1.3,10.7,2c2.7,0.5,5.7,0.8,8.2,1.9c6,2.7,11.8,5.7,17.5,8.9c5.3,3,9.8,2.1,13.9-2.1c1.6-1.6,3.5-2.8,6.1-4.8
			c0,2.7,0.1,4.3,0,5.9c-0.3,5.7-1.7,11.3,1.6,16.9c2.1,3.5-0.2,7.1-3.9,8.4c-9.4,3.2-18.9,6-28.9,9.2c-0.2-3.1-0.4-5.4-0.6-7.9
			c-4.7,0.8-9,1.5-13.2,2.3c-1.6-7.6-1.6-7.7-8.7-8.7c-7.6-1-15.2-2.1-22.8-2.7c-12.6-1.1-25,0-36.6,5.5
			c-12.8,6.1-15.9,18.7-6.9,29.7c3.3,4,8,7,11.9,10.5c3.3,2.9,6.6,6,9.9,9c-0.4,0.5-0.7,1-1.1,1.5c-7.6,0.3-14.8-1.4-21.4-5.1
			c-6.4-3.6-12.5-7.9-19.3-12.3C270.3,509.1,270.7,515.6,271,522z M367.4,360c-11.5-5.6-19.9-18.1-36-14.4c9.2,4.4,18.3,7.7,21,18.4
			C357.7,362.6,362.5,361.3,367.4,360z"/>
		<path class="st1" d="M306.7,389.2c0.7-0.3,1.5-0.7,2.2-1c6.7,2.2,13.3,4.4,20,6.6c-0.2,0.7-0.5,1.4-0.7,2.1
			C321,394.3,313.8,391.7,306.7,389.2z"/>
</svg>
