<?xml version="1.0" standalone="no"?>
<!DOCTYPE svg PUBLIC "-//W3C//DTD SVG 20010904//EN"
 "http://www.w3.org/TR/2001/REC-SVG-20010904/DTD/svg10.dtd">
<svg version="1.0" xmlns="http://www.w3.org/2000/svg"
 width="192.000000pt" height="192.000000pt" viewBox="0 0 192.000000 192.000000"
 preserveAspectRatio="xMidYMid meet">
<metadata>
Created by potrace 1.13, written by Peter Selinger 2001-2015
</metadata>
<g transform="translate(0.000000,192.000000) scale(0.100000,-0.100000)"
fill="#000000" stroke="none">
<path d="M869 1701 c-86 -32 -148 -70 -201 -123 -34 -33 -44 -37 -110 -43 -80
-7 -110 -11 -148 -19 -14 -3 -38 -9 -55 -12 -16 -4 -43 -15 -58 -26 -26 -19
-27 -21 -12 -38 15 -16 12 -20 -37 -51 -29 -18 -55 -36 -58 -39 -3 -3 -28 -20
-57 -38 -44 -29 -83 -69 -83 -87 0 -3 11 -3 25 -1 32 6 32 -8 0 -50 -37 -48
-72 -129 -71 -161 1 -23 5 -28 23 -26 21 2 22 -1 19 -64 -3 -60 5 -121 20
-163 4 -12 9 -10 24 9 l18 25 12 -60 c22 -104 49 -178 78 -212 l29 -33 -3 115
c-4 138 8 211 47 293 34 69 106 147 159 170 91 40 202 48 302 23 91 -23 358
-113 358 -121 0 -4 -30 3 -67 16 -137 48 -234 68 -343 69 -144 1 -181 -8 -257
-65 -39 -29 -60 -55 -85 -106 -32 -65 -33 -72 -32 -178 1 -60 4 -123 8 -138
25 -104 96 -254 156 -330 22 -27 40 -46 41 -41 0 5 0 61 -1 124 -1 129 17 225
56 305 29 57 85 119 129 142 17 9 32 19 35 22 4 6 69 28 110 38 39 9 181 7
235 -3 62 -12 60 -14 -15 -19 -139 -8 -248 -32 -278 -62 -7 -7 -17 -13 -22
-13 -20 0 -95 -88 -119 -140 -20 -44 -25 -70 -25 -130 1 -86 4 -104 36 -166
20 -41 71 -104 83 -104 3 0 3 27 -1 60 -3 33 -3 60 1 60 3 0 18 -11 32 -24 53
-49 213 -107 213 -77 0 12 -31 42 -74 72 -95 66 -108 158 -32 221 12 9 35 20
51 24 17 3 35 10 40 14 10 8 226 5 275 -4 14 -2 35 -5 47 -5 14 -1 23 -8 25
-23 3 -21 8 -23 51 -20 28 1 46 -1 43 -7 -11 -18 5 -41 22 -32 10 4 47 16 84
26 85 22 106 43 91 88 -6 18 -10 54 -7 80 3 44 2 47 -14 38 -10 -6 -24 -17
-32 -25 -17 -21 -48 -20 -92 3 -19 11 -39 17 -42 14 -3 -4 -16 3 -29 14 -12
12 -40 24 -61 27 -67 11 -91 19 -103 35 -21 27 -14 45 35 82 94 72 129 78 193
31 22 -16 76 -40 119 -53 44 -12 80 -26 80 -30 0 -5 -9 -31 -20 -59 -11 -27
-17 -50 -14 -50 17 0 82 46 197 140 30 24 107 127 107 142 0 15 -40 58 -54 58
-6 0 -47 18 -161 70 -11 5 -63 28 -115 50 -52 23 -107 46 -122 53 -17 7 -35
29 -50 60 -56 120 -254 226 -471 252 -56 6 -57 7 -51 33 8 33 40 83 88 137 20
22 36 46 36 53 0 21 -70 13 -151 -17z"/>
</g>
</svg>
