<?xml version="1.0" encoding="UTF-8" ?><!DOCTYPE svg PUBLIC "-//W3C//DTD SVG 1.1//EN" "http://www.w3.org/Graphics/SVG/1.1/DTD/svg11.dtd"><svg width="17px" height="17px" viewBox="0 0 100 80" version="1.1" xmlns="http://www.w3.org/2000/svg"><path d="M49 0 L46 1 L44 2 L41 3 L39 4 L38 5 L36 6 L35 7 L34 8 L33 9 L28 10 L21 11 L16 12 L15 13 L14 14 L15 15 L15 16 L14 17 L12 18 L11 19 L9 20 L7 21 L6 22 L5 23 L4 24 L3 25 L5 26 L5 27 L4 28 L4 29 L3 30 L2 31 L2 32 L1 33 L1 34 L1 35 L0 36 L0 37 L0 38 L1 38 L17 37 L18 36 L20 35 L22 34 L24 33 L28 32 L82 31 L80 30 L78 29 L63 28 L63 27 L62 26 L61 25 L59 24 L56 23 L71 22 L70 21 L69 20 L68 19 L66 18 L64 17 L63 16 L61 15 L58 14 L55 13 L50 12 L45 11 L46 10 L46 9 L46 8 L47 7 L48 6 L48 5 L49 4 L50 3 L51 2 L52 1 L52 0 Z M62 23 L64 24 L65 25 L67 26 L69 27 L68 28 L76 28 L74 27 L73 26 L73 25 L72 24 L72 23 Z M34 32 L39 33 L42 34 L45 35 L25 36 L23 37 L22 38 L21 39 L20 40 L19 41 L18 42 L18 43 L17 44 L17 45 L16 46 L16 47 L16 48 L16 49 L16 50 L16 51 L16 52 L16 53 L16 54 L16 55 L16 56 L16 57 L16 58 L16 59 L16 60 L17 61 L17 62 L17 63 L18 64 L18 65 L18 66 L19 67 L19 68 L20 69 L20 70 L21 71 L21 72 L22 73 L23 74 L23 75 L24 76 L25 77 L25 78 L26 79 L26 79 L26 78 L26 77 L25 76 L25 75 L25 74 L25 73 L25 72 L25 71 L25 70 L25 69 L25 68 L26 67 L26 66 L26 65 L26 64 L26 63 L26 62 L27 61 L27 60 L27 59 L28 58 L28 57 L29 56 L29 55 L30 54 L31 53 L32 52 L33 51 L34 50 L36 49 L38 48 L40 47 L45 46 L66 45 L67 44 L70 43 L98 42 L99 41 L99 40 L54 39 L52 38 L49 37 L45 36 L91 35 L89 34 L87 33 L84 32 Z M49 36 L52 37 L55 38 L57 39 L99 39 L98 38 L96 37 L94 36 Z M3 38 L3 39 L3 40 L3 41 L3 42 L3 43 L2 44 L3 45 L3 46 L3 47 L3 48 L3 49 L4 49 L11 48 L11 47 L12 46 L12 45 L12 44 L13 43 L14 42 L14 41 L14 40 L15 39 L16 38 Z M72 43 L75 44 L76 45 L78 46 L81 47 L84 48 L86 49 L86 50 L85 51 L85 52 L85 53 L84 54 L84 54 L86 53 L87 52 L89 51 L90 50 L91 49 L93 48 L94 47 L94 46 L95 45 L96 44 L97 43 Z M54 46 L58 47 L50 48 L45 49 L42 50 L40 51 L38 52 L37 53 L36 54 L35 55 L35 56 L34 57 L34 58 L33 59 L33 60 L33 61 L32 62 L32 63 L32 64 L32 65 L32 66 L32 67 L32 68 L32 69 L33 70 L33 71 L33 72 L34 73 L34 74 L35 75 L35 76 L36 77 L37 78 L37 78 L37 77 L37 76 L37 75 L37 74 L44 73 L43 72 L43 71 L42 70 L42 69 L42 68 L42 67 L42 66 L43 65 L44 64 L45 63 L47 62 L50 61 L83 60 L82 59 L82 58 L82 57 L77 56 L74 55 L72 54 L71 53 L68 52 L63 51 L62 50 L62 49 L62 48 L64 47 L64 46 Z M6 49 L6 50 L6 51 L6 52 L7 53 L7 54 L7 55 L7 56 L8 57 L8 58 L8 59 L9 60 L10 61 L10 62 L11 63 L11 63 L11 62 L11 61 L11 60 L11 59 L11 58 L11 57 L11 56 L10 55 L10 54 L11 53 L11 52 L11 51 L11 50 L11 49 Z M82 54 L81 55 L80 56 L82 56 L82 55 L82 54 Z M62 61 L68 62 L68 63 L68 64 L70 64 L82 63 L83 62 L83 61 Z M73 64 L73 65 L73 66 L73 66 L76 65 L80 64 Z M39 74 L41 75 L43 76 L45 77 L47 78 L50 78 L49 77 L48 76 L46 75 L45 74 Z" /></svg>