<?xml version="1.0" standalone="no"?>
<!DOCTYPE svg PUBLIC "-//W3C//DTD SVG 20010904//EN"
 "http://www.w3.org/TR/2001/REC-SVG-20010904/DTD/svg10.dtd">
<svg version="1.0" xmlns="http://www.w3.org/2000/svg"
 width="557.000000pt" height="557.000000pt" viewBox="0 0 557.000000 557.000000"
 preserveAspectRatio="xMidYMid meet">
<metadata>
Created by potrace 1.11, written by Peter Selinger 2001-2013
</metadata>
<g transform="translate(0.000000,557.000000) scale(0.100000,-0.100000)"
fill="#000000" stroke="none">
<path d="M3290 5270 c0 -5 -3 -9 -7 -8 -5 0 -16 -2 -26 -7 -20 -8 -60 -79 -50
-89 4 -3 1 -6 -4 -6 -12 0 -12 -25 0 -36 4 -4 7 -13 7 -21 0 -20 42 -63 62
-63 10 0 18 -5 18 -11 0 -5 4 -8 9 -5 5 3 9 -209 9 -499 0 -415 -3 -505 -14
-505 -7 0 -18 8 -23 18 -6 9 -11 13 -11 9 0 -5 -12 -1 -27 7 -67 37 -104 45
-206 44 -57 -1 -108 -6 -116 -12 -8 -6 -16 -10 -18 -8 -8 6 -93 -21 -93 -30 0
-5 -5 -6 -11 -2 -6 3 -14 1 -18 -5 -4 -6 -16 -13 -27 -15 -28 -6 -75 -32 -68
-39 3 -3 -2 -4 -13 -3 -10 2 -27 -6 -39 -18 -11 -12 -25 -22 -31 -23 -18 -4
-193 -126 -193 -135 0 -5 -5 -6 -10 -3 -6 3 -13 -1 -16 -9 -3 -9 -10 -16 -14
-16 -5 0 -24 -15 -43 -32 -72 -68 -108 -98 -118 -98 -6 0 -7 -4 -4 -10 3 -5 1
-10 -4 -10 -15 0 -151 -137 -151 -152 0 -6 -3 -8 -6 -5 -8 7 -44 -31 -44 -45
0 -5 -3 -8 -7 -6 -5 2 -25 -13 -46 -34 -20 -21 -35 -38 -31 -38 3 0 -11 -15
-30 -34 -20 -18 -33 -36 -29 -40 3 -3 1 -6 -5 -6 -7 0 -12 -8 -12 -17 0 -9 -3
-14 -6 -10 -4 3 -25 -17 -47 -46 -23 -29 -47 -58 -54 -65 -7 -7 -13 -18 -13
-23 0 -6 -4 -7 -10 -4 -6 4 -7 -1 -3 -11 4 -12 3 -15 -5 -10 -7 4 -12 1 -12
-7 0 -8 -7 -17 -15 -21 -8 -3 -15 -10 -15 -16 0 -10 -20 -37 -53 -72 -10 -10
-15 -23 -12 -28 4 -6 -1 -10 -10 -10 -9 0 -13 -4 -10 -10 3 -5 1 -10 -5 -10
-6 0 -8 -4 -5 -10 3 -5 -2 -10 -11 -10 -10 0 -15 -3 -11 -6 3 -3 -8 -24 -24
-47 -16 -22 -29 -46 -29 -54 0 -7 -4 -13 -10 -13 -5 0 -10 -9 -10 -21 0 -11
-3 -18 -7 -16 -5 3 -20 -15 -35 -40 -16 -24 -22 -41 -15 -38 6 4 4 0 -5 -8
-10 -8 -18 -22 -18 -31 0 -10 -4 -14 -10 -11 -5 3 -10 -3 -10 -15 0 -14 -4
-19 -12 -14 -8 5 -9 2 -5 -9 4 -10 0 -20 -9 -25 -9 -5 -15 -12 -15 -15 1 -4 0
-9 0 -12 -1 -3 -2 -8 -3 -12 -1 -5 -12 -30 -24 -57 -12 -27 -22 -55 -22 -62 0
-8 -5 -14 -12 -14 -6 0 -9 -3 -6 -6 4 -3 0 -20 -7 -39 -8 -18 -11 -35 -8 -39
4 -3 1 -6 -5 -6 -6 0 -14 -20 -18 -45 -3 -25 -11 -45 -16 -45 -5 0 -7 -4 -4
-9 3 -4 1 -22 -4 -40 -6 -22 -5 -31 3 -31 7 0 6 -4 -3 -10 -8 -5 -11 -12 -7
-16 4 -4 1 -14 -6 -22 -9 -12 -9 -16 1 -19 6 -3 9 -10 5 -16 -9 -15 -11 -87
-2 -87 4 0 5 -14 4 -30 -1 -16 2 -30 7 -30 5 0 6 -4 3 -10 -3 -5 -2 -10 2 -10
5 0 10 -10 10 -22 1 -13 7 -24 12 -26 5 -2 7 -10 4 -18 -3 -8 0 -14 7 -14 6 0
9 -4 5 -9 -3 -5 -1 -12 5 -16 5 -3 10 -10 10 -14 0 -4 -169 -7 -375 -7 -317 1
-377 3 -385 16 -5 8 -6 18 -4 22 3 4 1 8 -4 8 -5 0 -12 9 -15 20 -3 11 -12 20
-21 20 -9 0 -16 5 -16 10 0 6 -11 10 -25 10 -14 0 -25 6 -25 13 0 9 -3 8 -9
-2 -5 -7 -13 -11 -18 -8 -14 9 -73 -24 -73 -40 0 -8 -4 -12 -9 -8 -14 8 -23
-29 -20 -83 3 -59 8 -72 25 -72 8 0 14 -4 14 -9 0 -16 59 -33 99 -28 43 5 100
45 93 65 -2 7 2 12 8 12 9 0 9 5 -1 18 -7 9 -10 14 -5 10 4 -4 18 -3 30 2 13
4 29 4 36 0 8 -5 19 -6 25 -2 16 10 35 11 35 1 0 -5 10 -5 23 0 12 4 33 5 47
1 14 -4 33 -3 44 3 13 6 21 5 26 -3 6 -9 13 -9 29 -1 15 8 21 9 21 1 0 -6 5
-8 13 -3 18 11 37 13 37 2 0 -5 10 -5 22 0 13 4 34 5 48 1 14 -4 33 -3 44 3
13 6 21 5 26 -3 6 -9 13 -9 29 -1 15 8 21 9 21 1 0 -6 5 -8 12 -3 19 11 38 13
38 2 0 -5 10 -5 23 0 12 4 33 5 47 1 14 -4 33 -3 44 3 12 6 21 5 25 -1 4 -7
12 -7 20 -2 10 5 24 -1 45 -21 17 -16 37 -29 44 -29 7 0 10 -4 7 -10 -3 -5 1
-10 10 -10 9 0 23 -7 32 -15 8 -8 19 -13 24 -10 5 4 9 1 9 -4 0 -6 9 -11 19
-11 11 0 23 -5 26 -10 5 -8 12 -7 23 2 12 10 14 10 8 1 -7 -13 5 -16 57 -16 9
0 17 -2 17 -6 0 -4 34 -7 75 -7 48 -1 75 3 75 10 0 6 4 5 9 -3 6 -8 14 -10 22
-5 8 5 31 10 52 11 21 1 54 7 74 12 20 6 41 7 46 4 6 -4 7 -1 2 7 -6 10 -3 12
13 8 12 -4 22 -2 22 4 0 5 5 6 10 3 6 -3 10 -2 10 4 0 5 9 8 20 6 11 -2 18 0
15 6 -4 5 2 9 12 9 26 0 103 31 103 42 0 5 4 7 9 3 5 -3 12 -1 16 5 4 6 11 8
16 5 5 -4 9 -1 9 5 0 6 8 10 18 8 9 -1 23 1 30 5 6 5 12 5 12 0 0 -4 74 -7
165 -6 91 1 165 -2 165 -7 0 -4 -16 -36 -35 -70 -19 -34 -35 -66 -35 -71 0 -5
-5 -9 -12 -9 -6 0 -8 -3 -5 -7 4 -3 2 -12 -4 -20 -6 -7 -8 -13 -4 -13 5 0 -2
-9 -14 -19 -12 -11 -21 -21 -20 -23 5 -7 -13 -48 -22 -48 -5 0 -9 -9 -9 -20 0
-11 -4 -20 -9 -20 -4 0 -16 -25 -26 -56 -9 -30 -23 -58 -29 -60 -7 -2 -12 -14
-13 -25 -2 -28 -26 -79 -37 -79 -4 0 -3 -7 4 -15 7 -8 8 -15 3 -15 -26 0 -46
-267 -22 -296 6 -8 9 -14 5 -14 -3 0 0 -15 8 -34 8 -19 12 -37 8 -40 -3 -3 2
-6 10 -6 13 0 28 -19 28 -36 0 -2 -139 -3 -310 -3 -179 1 -308 5 -304 10 3 5
-2 9 -11 9 -9 0 -14 4 -10 9 3 5 -8 24 -25 42 -16 19 -30 30 -30 26 0 -4 -16
-1 -35 7 -19 8 -35 11 -35 6 0 -5 -9 -7 -20 -5 -11 2 -20 0 -20 -5 0 -5 -13
-17 -30 -27 -16 -9 -30 -25 -30 -35 0 -10 -4 -18 -8 -18 -11 0 -4 -58 11 -90
16 -34 33 -50 51 -50 9 0 16 -5 16 -11 0 -6 9 -9 20 -6 11 3 20 0 20 -6 0 -8
3 -8 8 -2 4 6 13 10 20 11 39 3 43 5 36 16 -5 8 -2 9 10 5 9 -4 15 -3 11 2 -3
6 2 14 10 19 9 5 17 15 18 23 3 17 37 67 37 54 0 -6 14 -10 30 -10 17 0 30 5
30 10 0 6 5 3 10 -5 8 -12 11 -13 19 -1 7 11 9 11 14 0 4 -11 6 -11 6 -1 1 7
5 11 10 7 15 -9 105 -10 119 -2 6 5 12 4 12 0 0 -5 9 -9 20 -9 11 0 20 5 20
11 0 5 5 3 10 -5 5 -8 10 -10 10 -3 0 6 8 9 18 7 41 -9 123 -10 129 -1 3 5 9
3 14 -4 7 -12 9 -12 9 0 0 10 3 11 14 2 11 -9 16 -9 21 0 6 8 10 7 16 -2 7
-11 9 -11 9 -1 0 8 5 10 12 6 7 -4 28 -7 48 -6 28 2 43 -4 67 -27 17 -16 34
-27 37 -24 3 4 6 1 6 -6 0 -7 5 -9 10 -6 6 3 10 1 10 -4 0 -6 9 -11 20 -11 12
0 20 -7 20 -16 0 -13 3 -14 14 -5 10 8 16 9 21 1 3 -5 15 -10 26 -10 11 0 18
-4 15 -9 -3 -4 6 -6 19 -3 17 3 25 0 25 -9 0 -11 2 -11 10 1 5 8 10 10 10 4 0
-6 23 -11 52 -13 28 -1 56 -5 62 -8 13 -9 58 -8 79 0 9 3 17 2 17 -4 0 -6 6
-6 18 0 10 6 24 6 32 1 8 -5 19 -6 24 -2 16 9 46 10 46 0 0 -5 9 -4 20 2 11 6
20 7 20 2 0 -10 53 -7 71 3 6 4 41 7 76 6 36 -1 62 2 60 6 -3 5 11 9 31 9 46
0 89 8 98 17 4 4 13 2 20 -3 8 -8 17 -6 28 5 12 12 16 13 16 3 1 -9 3 -8 10 3
5 9 21 14 39 13 17 -1 31 2 31 7 0 4 7 5 17 2 10 -4 14 -2 10 4 -4 7 0 10 10
8 10 -1 26 2 36 7 19 10 60 20 85 21 6 0 12 4 12 9 0 4 14 8 31 8 16 0 28 4
25 9 -3 4 5 7 17 7 12 -1 28 2 35 7 8 6 12 5 12 -3 0 -9 3 -10 13 -1 8 6 17 8
21 4 3 -4 75 -8 159 -9 181 -2 171 0 163 -19 -3 -8 -1 -15 4 -15 5 0 13 -12
16 -26 4 -16 11 -23 21 -20 8 3 11 1 8 -4 -6 -9 8 -14 28 -11 4 0 7 -4 7 -10
0 -6 6 -9 14 -6 8 3 17 1 20 -6 3 -9 5 -9 5 0 1 6 9 9 20 6 10 -2 25 2 33 11
9 8 19 12 22 8 4 -3 9 4 13 16 3 12 9 22 13 22 10 0 30 47 23 54 -3 3 -7 19
-8 35 -3 31 -38 85 -49 74 -3 -3 -6 -1 -6 5 0 7 -9 12 -20 12 -11 0 -20 4 -20
9 0 11 -12 9 -60 -10 -19 -7 -38 -12 -42 -11 -4 1 -10 -7 -13 -18 -4 -11 -11
-20 -17 -20 -6 0 -9 -3 -6 -6 3 -3 -4 -15 -16 -28 -14 -15 -25 -19 -33 -13 -7
5 -13 6 -13 1 0 -10 -103 -10 -119 0 -6 4 -11 3 -11 -3 0 -7 -8 -7 -25 -1 -14
5 -25 6 -25 2 0 -4 -16 -6 -35 -4 -19 2 -35 7 -35 11 0 6 57 34 62 30 2 -1 23
9 48 22 25 13 50 24 55 24 6 1 9 7 7 14 -1 7 2 10 7 7 13 -8 111 46 104 58 -4
5 1 7 10 3 8 -3 21 1 28 9 6 8 14 12 16 10 3 -3 14 4 26 15 11 10 33 24 48 31
15 7 25 16 23 20 -3 4 1 8 9 8 8 0 20 7 27 15 7 8 16 12 21 9 5 -3 12 2 15 10
3 9 13 16 21 16 8 0 11 5 7 12 -5 8 -2 9 10 5 10 -4 15 -3 11 3 -3 5 6 12 20
16 13 3 22 10 19 15 -3 5 -1 9 5 9 6 0 22 11 36 25 14 14 25 23 25 20 0 -3 6
0 14 7 8 7 12 16 9 21 -2 4 0 6 6 5 20 -5 281 240 281 264 0 6 2 9 5 6 5 -5
85 69 85 79 0 2 16 19 35 39 19 19 35 42 35 50 0 8 5 12 10 9 6 -3 10 -2 10 4
0 5 11 22 25 37 14 15 25 30 25 33 0 3 14 22 30 41 16 19 30 38 30 42 0 14 48
77 53 71 4 -3 5 4 2 15 -2 12 0 24 4 26 10 6 7 58 -4 75 -6 10 -4 12 6 6 12
-8 12 -6 0 8 -7 9 -11 17 -8 17 3 0 -5 11 -19 25 -13 13 -27 24 -30 22 -3 -1
-10 6 -15 15 -6 11 -16 15 -26 11 -10 -4 -14 -2 -10 4 4 6 -8 10 -28 10 -22 0
-32 -4 -28 -11 4 -6 1 -6 -8 1 -9 7 -20 8 -29 3 -8 -5 -18 -6 -24 -3 -5 3 -6
1 -2 -5 4 -7 3 -12 -3 -12 -5 0 -22 -11 -37 -25 -15 -14 -24 -25 -20 -25 4 0
1 -7 -6 -15 -29 -32 -39 -45 -33 -45 3 0 -3 -9 -12 -19 -34 -37 -44 -51 -36
-51 4 0 -3 -7 -15 -16 -12 -8 -22 -20 -22 -26 0 -6 -11 -21 -26 -34 -14 -13
-22 -24 -17 -24 4 0 -3 -7 -15 -16 -12 -8 -19 -20 -16 -26 4 -6 3 -8 -2 -5 -5
3 -19 -5 -29 -19 -45 -55 -212 -224 -221 -224 -6 0 -22 -12 -36 -27 -34 -37
-66 -63 -78 -63 -6 0 -9 -3 -7 -7 1 -5 0 -8 -3 -8 -3 0 -20 -14 -37 -32 -17
-17 -34 -29 -37 -26 -3 3 -8 -2 -12 -11 -3 -9 -12 -16 -20 -16 -8 0 -14 -5
-14 -11 0 -5 -4 -7 -10 -4 -5 3 -10 1 -10 -4 0 -6 -6 -11 -14 -11 -7 0 -19 -7
-26 -15 -7 -9 -34 -28 -61 -42 -26 -15 -45 -31 -43 -35 3 -5 2 -7 -3 -6 -16 4
-53 -14 -48 -23 5 -8 -20 -14 -28 -6 -1 1 -15 -8 -31 -20 -16 -13 -32 -21 -36
-18 -4 3 -13 -2 -20 -10 -7 -8 -21 -15 -32 -15 -10 0 -16 -4 -13 -10 3 -5 1
-11 -4 -11 -14 -2 -29 -6 -36 -9 -3 -1 -8 -3 -12 -5 -5 -1 -21 -8 -38 -15 -16
-7 -32 -14 -35 -15 -3 -1 -18 -7 -33 -13 -16 -7 -34 -12 -42 -12 -7 0 -20 -6
-27 -12 -7 -7 -22 -14 -33 -15 -11 -1 -38 -7 -60 -13 -22 -6 -54 -13 -72 -15
-18 -2 -42 -9 -53 -15 -11 -6 -25 -8 -30 -5 -5 3 -11 1 -15 -5 -4 -6 -10 -8
-15 -5 -5 3 -19 1 -30 -5 -14 -8 -20 -8 -20 0 0 6 -5 8 -12 3 -14 -8 -23 -10
-76 -18 -18 -2 -31 -1 -28 3 2 4 -4 8 -14 8 -10 0 -18 -5 -17 -10 1 -6 -25
-11 -60 -11 -39 -1 -63 3 -63 9 0 8 -3 7 -8 0 -8 -13 -60 -13 -79 -1 -6 4 -14
4 -17 -1 -7 -11 -77 -9 -95 2 -10 7 -12 5 -7 -5 4 -8 0 -5 -8 5 -9 11 -16 15
-16 10 0 -13 -31 -15 -46 -3 -6 5 -20 7 -32 4 -12 -2 -22 0 -22 6 0 5 -9 9
-20 9 -11 0 -20 5 -20 11 0 5 -4 8 -9 5 -11 -7 -24 41 -16 54 4 6 1 10 -5 10
-6 0 -8 5 -3 13 4 6 9 21 10 32 2 11 10 38 19 60 9 22 18 49 20 59 2 11 7 22
12 25 8 6 20 31 19 41 0 3 6 16 13 30 8 14 13 28 12 32 -1 5 2 8 7 8 10 0 27
39 23 52 -1 5 3 8 10 8 6 0 9 3 5 6 -3 3 3 14 14 25 11 11 17 24 14 29 -4 6
-1 10 4 10 6 0 11 8 11 18 0 10 9 24 19 31 11 8 17 20 14 28 -3 7 -1 13 5 13
6 0 13 13 17 30 4 16 11 30 16 30 5 0 9 9 9 21 0 11 4 18 9 15 5 -3 11 3 14
13 4 16 12 18 43 15 22 -3 45 -7 52 -9 6 -3 12 0 12 6 0 6 5 7 10 4 6 -3 10
-1 10 5 0 6 5 8 10 5 6 -3 10 -1 10 5 0 6 4 9 9 5 5 -3 12 4 16 15 3 11 10 20
14 20 3 0 7 9 8 20 7 76 5 90 -17 107 -8 7 -11 13 -6 13 4 0 -2 9 -15 19 l-24
19 19 38 c11 22 19 43 18 47 -1 4 4 10 12 13 8 3 12 12 9 20 -3 8 0 14 7 14 6
0 9 4 5 9 -3 6 1 13 9 18 8 4 15 13 16 18 3 29 13 55 22 55 5 0 6 5 3 10 -3 6
-2 10 4 10 6 0 8 6 5 14 -3 8 0 17 5 21 6 3 9 11 5 16 -3 5 0 8 8 7 8 -2 12 4
10 16 -2 13 1 16 10 10 10 -6 9 -3 -1 10 -8 9 -10 16 -5 14 5 -2 11 2 13 7 2
6 10 19 17 30 8 11 14 29 14 41 0 12 7 27 15 34 9 7 14 19 11 26 -3 7 -1 16 5
20 6 3 8 12 5 19 -2 7 2 16 10 19 9 3 12 10 9 16 -3 5 -1 10 5 10 6 0 9 4 5 9
-3 5 -1 12 4 16 5 3 8 14 6 24 -2 11 2 22 10 24 10 5 13 -45 13 -264 0 -228
-2 -270 -14 -265 -8 3 -14 1 -14 -5 0 -5 -11 -14 -24 -20 -34 -16 -81 -119
-53 -119 5 0 7 -7 3 -15 -3 -8 1 -18 9 -22 13 -8 15 -12 15 -34 0 -5 5 -7 10
-4 6 3 10 2 10 -4 0 -15 71 -32 101 -23 14 4 40 19 59 34 28 22 34 33 36 73 5
78 -22 112 -111 140 -16 5 -17 8 -5 15 13 9 13 10 0 10 -11 0 -12 2 -3 8 8 5
9 19 4 45 -5 20 -6 37 -2 37 3 0 6 18 6 40 0 22 -4 40 -8 40 -5 0 -5 5 -1 12
9 14 8 124 -1 138 -3 6 -3 10 2 10 4 0 7 66 6 147 0 82 2 153 6 158 9 12 37
127 33 138 -1 5 2 6 8 2 5 -3 10 3 10 13 0 22 23 46 34 35 4 -4 4 1 0 11 -5
14 -4 17 4 12 7 -4 12 -1 12 8 0 9 4 16 9 16 5 0 19 15 32 34 13 19 27 32 31
30 5 -3 8 -2 7 3 -4 17 14 43 30 43 12 0 13 2 3 9 -11 7 -11 9 2 14 9 4 21 18
26 32 5 14 14 25 20 25 6 0 9 4 5 9 -3 6 4 15 15 21 11 6 20 17 20 24 0 8 7
17 16 20 9 4 14 9 11 12 -3 3 7 18 21 34 37 39 48 54 50 63 1 4 8 15 17 23 8
9 13 20 10 25 -4 5 1 9 9 9 9 0 16 7 16 15 0 8 13 27 28 43 15 16 26 35 24 42
-3 7 0 10 7 6 6 -4 11 -1 11 9 0 8 7 18 15 21 8 4 12 10 9 15 -3 5 0 9 6 9 6
0 9 4 5 9 -3 6 3 15 14 20 10 6 22 22 25 36 4 14 11 23 16 20 9 -6 14 8 11 28
0 4 3 7 8 7 9 0 71 96 71 110 0 4 7 11 16 14 9 4 14 9 11 12 -3 4 3 15 13 27
11 11 17 24 14 29 -3 4 2 8 11 8 9 0 13 5 10 11 -4 5 3 19 16 30 12 10 19 19
15 19 -4 0 -1 7 6 15 31 34 36 43 31 49 -4 3 -1 6 5 6 6 0 18 14 27 30 9 17
13 30 10 30 -3 0 4 10 15 23 42 47 48 55 43 61 -3 2 4 15 16 27 12 13 21 29
21 36 0 7 5 13 11 13 6 0 8 7 5 16 -3 8 -2 13 3 10 7 -5 26 24 30 47 0 4 9 16
19 26 33 37 38 47 34 60 -3 8 0 11 6 7 9 -5 22 13 28 41 1 7 9 20 18 29 9 8
14 20 11 25 -4 5 -2 9 4 9 10 0 15 9 59 94 13 25 28 46 33 46 6 0 8 4 5 9 -3
5 2 19 12 32 20 26 36 60 34 72 -1 4 3 7 8 7 6 0 10 7 10 15 0 9 7 18 15 21 8
4 12 10 9 15 -3 5 0 9 6 9 6 0 8 5 5 10 -3 6 -1 10 5 10 6 0 8 5 5 10 -3 6 -2
10 4 10 5 0 15 16 22 35 7 19 17 35 22 35 4 0 5 5 2 10 -3 6 -2 10 4 10 5 0
13 10 17 22 4 13 14 29 23 36 9 8 10 11 4 7 -7 -3 -13 -1 -13 4 0 6 4 11 9 11
9 0 64 106 67 130 1 8 5 23 9 33 4 10 3 17 -4 17 -6 0 -8 7 -5 15 7 17 -17 59
-54 94 -29 26 -113 38 -157 21 -30 -11 -90 -70 -72 -70 7 0 4 -5 -5 -11 -10
-5 -18 -16 -18 -23 0 -7 -9 -25 -21 -40 -11 -14 -17 -26 -12 -26 4 0 1 -6 -8
-13 -9 -7 -17 -16 -18 -22 -4 -26 -13 -45 -22 -45 -6 0 -7 -4 -4 -10 3 -5 1
-10 -4 -10 -6 0 -11 -9 -11 -20 0 -11 -4 -20 -10 -20 -5 0 -10 -6 -10 -14 0
-8 -6 -16 -14 -19 -8 -3 -17 -19 -21 -36 -4 -17 -11 -31 -16 -31 -5 0 -11 -11
-15 -25 -3 -14 -10 -25 -16 -25 -5 0 -6 -4 -3 -10 3 -5 1 -10 -5 -10 -6 0 -9
-4 -5 -9 3 -5 1 -13 -5 -16 -6 -4 -20 -26 -31 -49 -11 -24 -28 -52 -37 -62
-10 -10 -19 -23 -20 -29 -7 -32 -15 -45 -25 -39 -7 4 -9 4 -5 -1 7 -7 -18 -65
-28 -65 -3 0 -2 5 2 12 4 7 3 8 -4 4 -6 -4 -9 -13 -6 -20 3 -7 -2 -20 -10 -29
-9 -9 -16 -18 -16 -22 0 -13 -47 -75 -53 -70 -4 3 -5 2 -2 -2 4 -5 -51 -111
-64 -123 -8 -7 -27 -39 -47 -77 -9 -18 -20 -33 -25 -33 -5 0 -9 -7 -9 -15 0
-9 -7 -18 -15 -21 -8 -4 -13 -9 -10 -14 2 -4 -4 -16 -14 -26 -9 -11 -15 -26
-13 -33 3 -8 0 -11 -5 -8 -6 4 -15 -5 -21 -18 -7 -14 -17 -25 -24 -25 -9 0 -8
-3 2 -10 13 -8 12 -10 -4 -10 -12 0 -16 -5 -12 -15 3 -9 0 -15 -10 -15 -8 0
-13 -4 -10 -9 3 -5 -1 -14 -9 -21 -8 -7 -15 -19 -15 -27 0 -8 -4 -11 -10 -8
-5 3 -10 -1 -10 -9 0 -8 -7 -22 -16 -30 -8 -9 -12 -16 -8 -16 4 0 -1 -7 -12
-15 -10 -8 -15 -15 -11 -15 5 0 1 -7 -7 -16 -9 -8 -13 -20 -10 -26 4 -6 2 -8
-4 -4 -6 3 -13 -2 -17 -13 -3 -11 -12 -22 -20 -25 -8 -3 -12 -12 -9 -21 5 -11
2 -14 -12 -8 -12 4 -15 3 -10 -5 4 -7 2 -12 -5 -12 -7 0 -9 -3 -6 -7 4 -3 -3
-17 -15 -30 -12 -13 -18 -23 -14 -23 4 0 -4 -11 -18 -23 -14 -13 -23 -27 -19
-30 3 -4 0 -7 -7 -7 -7 0 -10 -3 -7 -6 4 -4 -3 -15 -15 -25 -11 -11 -17 -19
-12 -19 5 0 1 -5 -9 -11 -9 -6 -15 -14 -12 -20 3 -5 -1 -6 -10 -3 -12 5 -13 9
-4 20 6 8 8 14 3 14 -11 0 -10 51 0 68 4 7 3 12 -3 12 -6 0 -6 11 -1 30 5 17
6 30 2 30 -4 0 -8 12 -9 28 -3 56 -8 92 -13 92 -4 0 -6 11 -6 24 0 31 -46 146
-56 140 -4 -3 -10 7 -14 21 -3 14 -19 39 -36 57 -18 20 -25 34 -18 38 7 5 8
15 1 33 -8 20 -7 27 2 27 8 0 8 3 -2 9 -8 5 -9 10 -3 12 8 3 8 17 3 42 -5 20
-6 37 -2 37 3 0 6 18 6 40 0 22 -4 40 -8 40 -5 0 -5 5 -1 12 9 14 8 124 -1
138 -3 6 -2 10 4 10 6 0 6 11 1 30 -6 21 -5 30 3 30 8 0 7 3 -2 9 -9 6 -10 10
-2 12 9 3 9 12 2 32 -8 20 -7 27 2 27 8 0 8 3 -2 9 -8 5 -9 10 -3 12 8 3 8 17
3 42 -5 20 -6 37 -2 37 3 0 6 18 6 40 0 22 -4 40 -8 40 -5 0 -5 5 -1 12 9 14
8 124 -1 138 -3 6 -3 10 2 10 4 0 8 33 8 73 0 53 3 71 13 69 13 -2 16 0 67 45
26 23 30 34 31 80 0 29 -3 53 -8 53 -4 0 -8 6 -8 13 0 18 -67 60 -88 55 -11
-3 -27 -1 -36 4 -10 6 -16 5 -16 -2z m-180 -1508 c13 -12 20 -22 16 -22 -5 0
-1 -12 8 -26 10 -14 18 -41 19 -60 1 -19 5 -34 9 -34 3 0 4 -18 2 -41 -4 -30
-2 -39 7 -33 8 5 9 3 3 -7 -13 -22 -14 -120 0 -112 6 4 2 -4 -9 -17 -11 -13
-14 -20 -6 -15 11 6 13 4 8 -8 -4 -10 -1 -17 6 -17 7 0 8 -3 2 -8 -15 -11 -20
-48 -24 -170 -1 -16 -5 -21 -13 -16 -9 5 -9 2 1 -9 9 -12 10 -21 4 -29 -6 -7
-10 -25 -9 -40 1 -16 -5 -30 -13 -33 -11 -4 -11 -9 -3 -17 8 -8 8 -17 1 -30
-6 -11 -8 -26 -5 -34 3 -8 2 -14 -3 -14 -4 0 -8 -7 -9 -15 -1 -8 -3 -22 -4
-30 -1 -8 -8 -15 -15 -15 -8 0 -11 -4 -8 -10 3 -5 1 -10 -6 -10 -7 0 -9 -3 -6
-6 3 -4 -5 -16 -19 -26 -14 -11 -23 -22 -21 -25 3 -2 -7 -17 -22 -32 -76 -81
-121 -134 -121 -142 0 -4 -7 -6 -16 -2 -11 4 -15 2 -12 -7 2 -8 -15 -32 -38
-54 -24 -21 -40 -44 -37 -50 3 -6 3 -8 -1 -4 -4 3 -35 -21 -70 -55 -73 -73
-116 -110 -116 -99 -1 4 -7 -5 -15 -20 -8 -15 -24 -30 -35 -33 -11 -4 -18 -11
-15 -16 4 -5 2 -9 -4 -9 -5 0 -23 -14 -40 -31 -17 -17 -31 -28 -31 -24 0 4 -7
0 -15 -9 -8 -8 -15 -20 -15 -26 0 -6 -4 -8 -10 -5 -5 3 -10 1 -10 -4 0 -6 -6
-11 -12 -11 -7 0 -29 -15 -48 -33 -19 -17 -35 -30 -36 -27 -1 3 -16 -6 -34
-20 -18 -14 -37 -24 -42 -22 -4 1 -8 -5 -8 -14 0 -8 -4 -12 -10 -9 -5 3 -10 1
-10 -4 0 -6 -7 -11 -15 -11 -8 0 -15 -5 -15 -11 0 -5 -4 -8 -9 -5 -5 3 -12 -1
-15 -10 -3 -8 -10 -13 -15 -10 -5 4 -15 0 -23 -7 -13 -13 -43 -28 -66 -33 -8
-1 -21 -9 -30 -17 -10 -8 -45 -22 -79 -32 -35 -11 -63 -23 -63 -27 0 -5 -4 -7
-9 -4 -5 4 -22 1 -38 -5 -15 -6 -62 -13 -103 -15 -41 -3 -83 -6 -92 -8 -10 -2
-18 0 -18 5 0 4 -6 6 -14 3 -8 -3 -26 2 -40 11 -14 10 -26 14 -26 11 0 -4 -6
-1 -14 6 -8 7 -12 16 -10 20 2 4 0 9 -5 13 -18 11 -1 196 20 221 6 8 8 14 5
14 -4 0 -1 10 6 23 7 12 12 27 13 32 0 6 6 20 12 31 7 12 9 24 6 28 -3 3 -1 6
6 6 7 0 10 4 6 9 -3 5 0 15 7 23 7 7 13 18 14 23 2 27 27 74 37 68 5 -3 7 -1
3 5 -3 6 -2 13 4 17 6 4 8 10 5 15 -3 4 1 10 9 13 8 3 17 19 21 36 4 17 11 29
16 25 8 -5 13 10 7 20 -2 3 6 15 18 28 11 13 29 40 39 61 11 20 22 37 26 37 3
0 14 16 25 35 10 19 22 35 27 35 4 0 5 5 2 10 -3 6 1 13 9 16 9 3 14 9 11 13
-2 4 5 14 16 21 10 8 19 20 19 26 0 7 7 15 16 18 9 4 14 9 11 12 -3 3 6 17 20
30 14 13 22 24 18 24 -4 0 4 11 19 25 14 13 26 27 26 30 0 3 8 13 18 24 9 10
28 33 42 50 14 18 33 42 43 53 9 12 17 26 17 32 0 6 5 4 10 -4 5 -8 10 -10 10
-4 0 6 10 23 23 38 44 52 214 226 221 226 4 0 23 16 42 35 18 19 37 35 42 35
5 0 22 16 39 35 17 19 34 35 37 35 4 0 20 13 35 29 16 16 31 28 33 25 3 -2 13
5 23 16 10 11 24 20 32 20 7 0 13 5 13 11 0 5 5 7 10 4 6 -3 10 -2 10 3 0 4
22 20 50 34 27 14 46 28 43 32 -6 6 12 10 30 7 4 0 7 3 7 8 0 7 25 19 52 25 3
0 10 4 14 9 4 4 16 7 26 7 10 0 18 5 18 11 0 5 4 8 8 5 4 -2 13 -1 20 3 7 4
36 7 65 6 40 0 59 -6 77 -23z m-320 -1652 c0 -5 -4 -10 -10 -10 -5 0 -7 -7 -4
-15 4 -8 1 -15 -7 -15 -7 0 -10 -3 -6 -6 3 -3 -4 -22 -15 -42 -12 -21 -38 -70
-59 -110 -21 -39 -45 -79 -53 -88 -9 -8 -16 -24 -16 -35 0 -10 -5 -19 -11 -19
-5 0 -8 -4 -4 -9 8 -13 -31 -33 -58 -29 -12 1 -28 -1 -34 -5 -7 -5 -13 -4 -13
0 0 5 -9 9 -20 9 -11 0 -20 -4 -20 -9 0 -6 -5 -6 -12 -1 -12 8 -33 10 -48 4
-17 -6 -50 -5 -50 2 0 5 -8 5 -17 1 -26 -12 -56 -10 -61 5 -2 6 4 12 13 12 10
0 13 5 9 12 -4 6 -3 8 3 5 6 -4 16 0 23 8 7 8 18 15 26 15 7 0 20 10 28 22 9
12 16 19 16 15 0 -5 15 3 33 17 19 15 37 26 41 26 14 0 55 37 49 44 -3 3 0 6
8 6 8 0 32 15 52 34 20 18 38 31 40 29 2 -2 23 15 46 38 22 23 41 38 41 35 0
-4 14 9 31 29 30 34 59 46 59 25z m1353 -1405 c-3 -9 -8 -14 -10 -11 -3 3 -2
9 2 15 9 16 15 13 8 -4z"/>
</g>
</svg>
