<?xml version="1.0" standalone="no"?>
<!DOCTYPE svg PUBLIC "-//W3C//DTD SVG 20010904//EN"
 "http://www.w3.org/TR/2001/REC-SVG-20010904/DTD/svg10.dtd">
<svg version="1.0" xmlns="http://www.w3.org/2000/svg"
 width="550.000000pt" height="550.000000pt" viewBox="0 0 550.000000 550.000000"
 preserveAspectRatio="xMidYMid meet">
<metadata>
Created by potrace 1.11, written by Peter Selinger 2001-2013
</metadata>
<g transform="translate(0.000000,550.000000) scale(0.100000,-0.100000)"
fill="#000000" stroke="none">
<path d="M3220 5077 c-32 -16 -70 -73 -70 -106 0 -39 36 -90 75 -107 l35 -14
0 -673 0 -673 -32 -9 c-40 -12 -78 -66 -78 -110 0 -44 38 -98 78 -110 l32 -9
0 -676 0 -676 -32 -9 c-37 -11 -78 -65 -78 -102 0 -38 27 -87 59 -106 86 -51
191 17 178 115 -6 46 -29 75 -74 95 l-33 13 0 670 0 670 33 14 c49 20 77 60
77 112 0 35 -6 49 -34 78 -18 20 -43 36 -55 36 l-21 0 2 678 3 677 22 3 c36 5
83 67 83 108 0 89 -93 150 -170 111z"/>
<path d="M4521 5004 c-87 -73 -35 -215 78 -214 93 1 149 96 106 180 -32 62
-129 80 -184 34z"/>
<path d="M4828 1964 c-77 -41 -75 -169 2 -209 16 -8 48 -15 71 -15 33 0 47 6
75 34 29 29 34 41 34 80 0 27 -7 58 -16 72 -34 51 -110 69 -166 38z"/>
<path d="M1630 1797 c-30 -10 -71 -54 -82 -88 -2 -7 -173 -12 -495 -16 l-491
-6 -15 35 c-41 98 -177 107 -221 14 -20 -43 -20 -59 0 -102 20 -42 59 -64 115
-64 33 0 47 6 75 34 19 19 34 41 34 50 0 14 48 16 498 16 l498 0 17 -35 c44
-93 172 -91 217 3 l15 32 496 0 497 0 12 -30 c19 -46 56 -70 107 -70 70 0 123
50 123 115 0 124 -173 163 -227 51 l-15 -33 -169 -6 c-92 -4 -316 -4 -496 0
l-328 6 -15 30 c-28 58 -90 84 -150 64z"/>
<path d="M1543 791 c-39 -25 -53 -49 -53 -96 0 -63 28 -98 93 -119 48 -15 137
40 137 85 0 18 14 19 524 19 l524 0 12 -30 c40 -97 174 -103 217 -9 l18 38
520 0 520 0 18 -38 c59 -128 261 -51 218 82 -36 107 -185 115 -222 13 l-13
-36 -521 0 -521 0 -13 36 c-35 96 -174 99 -218 4 l-18 -39 -517 -1 -518 0 -13
33 c-20 46 -50 69 -99 74 -31 3 -52 -1 -75 -16z"/>
</g>
</svg>
