<?xml version="1.0" standalone="no"?>
<!DOCTYPE svg PUBLIC "-//W3C//DTD SVG 20010904//EN"
 "http://www.w3.org/TR/2001/REC-SVG-20010904/DTD/svg10.dtd">
<svg version="1.0" xmlns="http://www.w3.org/2000/svg"
 width="310.000000pt" height="310.000000pt" viewBox="0 0 310.000000 310.000000"
 preserveAspectRatio="xMidYMid meet">
<metadata>
Created by potrace 1.11, written by Peter Selinger 2001-2013
</metadata>
<g transform="translate(0.000000,310.000000) scale(0.100000,-0.100000)"
fill="#000000" stroke="none">
<path d="M1473 2769 c-163 -47 -284 -115 -404 -226 -39 -37 -71 -58 -88 -59
-216 -14 -407 -46 -469 -78 -36 -19 -72 -51 -72 -64 0 -6 9 -16 20 -22 11 -6
20 -14 20 -19 0 -4 -55 -44 -122 -87 -183 -118 -235 -159 -257 -202 l-20 -39
39 1 c22 1 40 -2 40 -7 0 -6 -22 -44 -49 -86 -82 -129 -108 -194 -106 -264 1
-42 4 -43 45 -22 l29 15 -3 -119 c-4 -117 13 -244 34 -265 6 -6 19 1 34 19 14
16 27 27 30 25 2 -3 16 -61 31 -130 33 -154 74 -256 126 -312 l40 -43 -7 65
c-7 81 -8 301 -1 355 14 107 62 241 114 320 42 63 143 157 203 189 113 61 277
85 419 62 113 -19 638 -182 665 -207 22 -20 -7 -14 -144 32 -80 26 -170 54
-200 60 -30 7 -57 13 -60 14 -6 1 -65 12 -125 22 -56 9 -282 10 -330 0 -106
-20 -203 -72 -275 -146 -44 -46 -106 -149 -116 -193 -44 -195 -36 -363 27
-560 24 -79 114 -262 169 -348 46 -71 109 -142 121 -135 4 3 3 21 -1 41 -5 20
-7 116 -5 213 2 149 7 191 28 271 59 226 157 353 341 440 136 64 353 86 533
53 87 -16 115 -31 56 -30 -58 1 -265 -17 -318 -27 -193 -38 -352 -155 -427
-315 -37 -79 -41 -100 -44 -221 -3 -123 21 -211 82 -308 39 -61 92 -122 107
-122 9 0 0 177 -11 194 -7 12 10 1 82 -53 101 -76 202 -120 288 -125 50 -2 56
-1 48 13 -12 22 -66 71 -127 115 -90 64 -133 131 -133 207 0 50 13 82 47 117
43 43 89 67 168 88 62 16 172 25 248 20 86 -6 115 -9 192 -21 17 -3 52 -8 80
-11 27 -3 51 -7 52 -8 1 -1 3 -18 5 -39 2 -37 3 -37 38 -31 19 3 49 9 67 14
40 10 45 5 37 -37 -3 -18 -3 -33 0 -33 11 0 157 40 228 62 37 11 76 29 87 40
25 22 27 65 5 96 -12 18 -14 38 -9 99 3 42 8 80 11 85 14 22 -27 3 -70 -32
-56 -47 -79 -49 -146 -15 -42 21 -69 30 -101 34 -4 1 -22 14 -40 31 -19 16
-41 30 -49 31 -8 0 -24 2 -35 4 -11 2 -41 6 -67 8 -26 3 -60 13 -76 21 -32 16
-57 69 -44 92 13 24 146 126 195 149 70 33 131 20 207 -45 20 -17 66 -39 105
-51 171 -53 200 -62 203 -64 4 -3 -39 -117 -59 -158 -8 -14 -5 -17 16 -17 29
0 225 145 331 245 38 36 134 167 140 191 15 58 -5 70 -478 275 l-288 124 -41
81 c-52 102 -82 135 -192 212 -144 102 -434 194 -644 205 -48 2 39 168 141
270 13 13 33 42 44 63 l20 39 -48 0 c-27 0 -89 -11 -137 -26z m466 -714 c24
-8 64 -30 90 -49 25 -18 66 -43 89 -55 24 -13 42 -24 39 -27 -4 -4 -141 -44
-151 -44 -2 0 -10 16 -16 35 -14 44 -61 84 -138 120 -34 16 -62 31 -62 35 0
11 104 1 149 -15z"/>
</g>
</svg>
